<svg xmlns="http://www.w3.org/2000/svg" viewBox="0 0 24 24" role="img" aria-label="Website"><path fill="#b08d57" d="M12 2a10 10 0 1 0 0 20 10 10 0 0 0 0-20zm6.92 6h-3.01a15.7 15.7 0 0 0-1.38-3.11A8.06 8.06 0 0 1 18.92 8zM12 4c.83 1.2 1.48 2.54 1.89 4h-3.78A13.8 13.8 0 0 1 12 4zM9.47 4.89A15.7 15.7 0 0 0 8.09 8H5.08a8.06 8.06 0 0 1 4.39-3.11zM4.26 10H7.7a16.4 16.4 0 0 0 0 4H4.26a8.1 8.1 0 0 1 0-4zm.82 6h3.01c.31 1.1.77 2.15 1.38 3.11A8.06 8.06 0 0 1 5.08 16zM12 20a13.8 13.8 0 0 1-1.89-4h3.78A13.8 13.8 0 0 1 12 20zm2.3-6H9.7a14.3 14.3 0 0 1 0-4h4.6a14.3 14.3 0 0 1 0 4zm.23 5.11A15.7 15.7 0 0 0 15.91 16h3.01a8.06 8.06 0 0 1-4.39 3.11zM16.3 14a16.4 16.4 0 0 0 0-4h3.44a8.1 8.1 0 0 1 0 4H16.3z"/></svg>